<svg version="1.1" id="Layer_1" xmlns="http://www.w3.org/2000/svg" xmlns:xlink="http://www.w3.org/1999/xlink" x="0px" y="0px"
	 width="100%" viewBox="0 0 1024 1024" enable-background="new 0 0 1024 1024" xml:space="preserve">
<path fill="#000000" opacity="1.000000" stroke="none" 
	d="
M399.367249,70.264618 
	C436.315887,56.496155 474.172058,49.447811 513.166565,50.056427 
	C580.420959,51.106129 641.946106,70.229958 696.956909,109.629288 
	C751.860107,148.951523 790.702759,200.348495 814.179993,263.489410 
	C824.853394,292.194977 830.959412,321.936829 833.416382,352.441315 
	C838.549438,416.169952 827.704041,476.863953 798.216797,533.810852 
	C783.513855,562.205811 765.074524,588.002808 742.874634,611.183472 
	C702.723389,653.108704 655.218689,683.012756 599.742676,700.103210 
	C574.478516,707.886292 548.586060,711.748169 522.109741,712.448303 
	C481.875793,713.512207 442.770691,707.908508 404.937256,694.106567 
	C354.469757,675.695679 311.592621,645.897095 275.332214,606.513977 
	C242.372665,570.716003 217.916885,529.796082 203.116699,483.323364 
	C194.952698,457.688354 190.307465,431.389587 188.494110,404.520844 
	C185.243378,356.354370 191.293777,309.507782 207.826233,264.128998 
	C225.704071,215.057449 253.587418,172.432861 291.816315,136.837982 
	C323.122040,107.689240 358.595215,85.001999 399.367249,70.264618 
M382.557739,572.913940 
	C425.754181,602.310791 472.956543,617.349487 525.670837,613.946594 
	C556.811646,611.936401 585.878479,603.355835 613.308411,588.884583 
	C651.290161,568.846497 681.516541,540.403198 704.538757,504.176361 
	C727.068420,468.724518 739.505188,429.910370 742.500977,388.195129 
	C744.114685,365.724701 742.591309,343.261566 737.607361,321.174164 
	C721.710693,250.724442 683.816589,195.961014 620.756897,159.915146 
	C571.900513,131.988113 519.162903,123.717384 464.442444,136.226074 
	C386.313416,154.085785 331.548126,201.515259 299.556122,274.599854 
	C276.696686,326.821350 272.680389,381.071899 287.890808,436.192657 
	C303.407196,492.422028 334.712799,538.042725 382.557739,572.913940 
z"/>
<path fill="#000000" opacity="1.000000" stroke="none" 
	d="
M459.259338,914.658569 
	C476.959351,916.320251 494.239532,917.756714 511.562775,917.602295 
	C571.536194,917.067810 629.738220,906.677917 686.008484,885.715088 
	C750.315186,861.758423 808.003845,826.797729 859.005249,780.990479 
	C906.159424,738.638611 945.103760,689.675110 974.816895,633.570374 
	C976.996704,629.454468 978.905029,628.816772 982.852600,631.027893 
	C993.460449,636.969604 1004.198486,642.683289 1014.965210,648.334290 
	C1018.424988,650.150085 1019.295471,651.832275 1017.217834,655.681519 
	C991.980164,702.438721 961.109131,745.077576 924.425415,783.510193 
	C869.052856,841.522644 804.615417,886.473938 730.862305,918.071533 
	C690.730591,935.264893 649.118042,947.431763 606.159058,954.929932 
	C569.319946,961.360046 532.143372,964.422180 494.761536,962.969910 
	C421.300171,960.115906 350.675781,944.509888 283.402313,914.478760 
	C212.971863,883.038391 151.269714,839.175598 98.072678,783.447754 
	C61.409534,745.040527 30.395369,702.430725 5.582933,655.406433 
	C4.584975,653.515076 2.365376,651.350098 5.747324,649.548096 
	C18.520023,642.742310 30.937210,635.257812 43.903717,629.204224 
	C46.091843,630.142639 46.628326,631.978271 47.474281,633.556946 
	C78.165886,690.830994 117.690323,741.085144 166.574142,783.980164 
	C222.803665,833.320923 286.289520,869.939819 357.452759,893.050293 
	C388.698242,903.197388 420.620209,910.493286 453.372345,913.825195 
	C455.192139,914.010315 456.994843,914.362976 459.259338,914.658569 
z"/>
<path fill="#000000" opacity="1.000000" stroke="none" 
	d="
M633.178589,817.022583 
	C678.935059,803.158691 720.745911,782.152771 759.412476,754.843506 
	C788.244690,734.479858 814.387146,711.052246 837.793945,684.623779 
	C862.529602,656.694946 884.036987,626.503967 900.936707,593.164490 
	C902.745422,589.596130 904.608704,589.144897 907.997986,591.028992 
	C918.481262,596.856445 929.031616,602.571289 939.685974,608.078247 
	C943.330505,609.962097 943.882446,611.705933 941.906372,615.436829 
	C920.790588,655.303406 894.464355,691.404785 863.613586,724.238892 
	C820.466431,770.159912 770.344788,806.621704 713.645813,834.014526 
	C671.829285,854.217285 627.900757,867.888855 582.009216,874.928284 
	C542.166443,881.039917 502.178223,881.877686 462.030975,877.520020 
	C374.065826,867.971985 295.198822,835.653748 224.632324,782.806030 
	C164.391510,737.691467 116.248665,681.995911 80.640015,615.564575 
	C78.651741,611.855347 79.187561,610.187805 82.860184,608.321655 
	C91.917755,603.719116 100.663048,598.499084 109.743568,593.945496 
	C120.545006,588.528809 118.038452,587.933960 123.524101,598.025940 
	C141.359573,630.837891 162.592087,661.250793 187.876755,688.705017 
	C251.232178,757.496521 327.975800,803.838257 419.286072,825.264771 
	C444.278839,831.129456 469.706848,833.931641 495.392883,835.078430 
	C542.300293,837.172607 588.024597,831.005981 633.178589,817.022583 
z"/>
<path fill="#000000" opacity="1.000000" stroke="none" 
	d="
M649.771606,725.691589 
	C722.207520,692.624329 778.027527,641.651428 818.338257,573.590454 
	C820.975403,569.138000 823.018433,568.792542 827.257507,571.344727 
	C836.528015,576.926392 846.041504,582.123047 855.616943,587.171143 
	C859.744812,589.347229 860.527100,591.277832 857.988159,595.578552 
	C826.313660,649.232849 784.738403,693.658142 733.485962,728.938660 
	C685.197205,762.178955 632.093323,784.127258 574.281982,793.976074 
	C542.193237,799.442749 509.856232,800.563171 477.277588,797.604309 
	C423.393555,792.710449 372.873627,777.083923 325.541779,751.330688 
	C257.823944,714.485413 204.554688,662.434814 165.078781,596.244141 
	C161.560608,590.345032 161.585098,590.288940 167.566208,586.972168 
	C176.743500,581.882935 186.089493,577.078125 195.078262,571.677307 
	C199.399475,569.080933 201.390732,569.749878 203.918076,574.061523 
	C216.161575,594.948975 230.194672,614.601746 246.295319,632.708862 
	C282.468353,673.389709 325.302704,705.019470 375.193787,726.934631 
	C407.415131,741.088135 440.982147,750.155640 476.045563,753.851257 
	C518.781372,758.355591 560.821777,754.958069 602.119873,743.272034 
	C618.299133,738.693848 634.107849,732.877380 649.771606,725.691589 
z"/>
<path fill="#000000" opacity="1.000000" stroke="none" 
	d="
M501.517578,481.781128 
	C449.999390,476.115265 410.707489,438.846802 402.937408,387.878510 
	C394.463348,332.292236 428.779541,278.120453 484.147278,264.205231 
	C546.612183,248.506287 608.902893,289.338348 619.131836,352.971130 
	C628.558838,411.614838 591.889465,466.693237 534.702881,479.673462 
	C523.929626,482.118774 513.004761,483.013641 501.517578,481.781128 
z"/>
</svg>